<?xml version="1.0" encoding="iso-8859-1"?>
<!-- Uploaded to: SVG Repo, www.svgrepo.com, Generator: SVG Repo Mixer Tools -->
<svg fill="#ffffff" height="800px" width="800px" version="1.1" id="Layer_1" xmlns="http://www.w3.org/2000/svg" xmlns:xlink="http://www.w3.org/1999/xlink" 
	 viewBox="0 0 489.774 489.774" xml:space="preserve">
<g>
	<g>
		<g>
			<path d="M436.203,153.054h-45.916V76.527h38.263c4.227,0,7.653-3.426,7.653-7.653V7.653c0-4.227-3.426-7.653-7.653-7.653H38.262
				c-4.227,0-7.653,3.426-7.653,7.653v61.222c0,4.226,3.426,7.653,7.653,7.653h38.264v122.443c0,12.659,10.299,22.958,22.958,22.958
				h38.264v260.192c0,2.899,1.638,5.549,4.231,6.845c1.083,0.541,2.255,0.808,3.421,0.808c1.626,0,3.242-0.518,4.593-1.531
				l26.02-19.514l26.018,19.514c2.721,2.04,6.461,2.041,9.183,0l26.021-19.514l26.017,19.514c2.719,2.04,6.462,2.041,9.183,0
				l26.021-19.514l26.02,19.514c2.72,2.041,6.463,2.041,9.183,0l26.02-19.514l26.019,19.514c2.719,2.04,6.462,2.041,9.183,0
				l26.02-19.514l26.019,19.514c2.318,1.739,5.42,2.019,8.014,0.723c2.592-1.296,4.23-3.946,4.23-6.845V176.013
				C459.161,163.353,448.862,153.054,436.203,153.054z M68.873,45.917h7.653v15.305H45.915V15.306h374.983v45.916h-30.61V45.917
				h7.653c4.227,0,7.653-3.426,7.653-7.653c0-4.227-3.426-7.653-7.653-7.653H68.873c-4.227,0-7.653,3.426-7.653,7.653
				C61.22,42.49,64.646,45.917,68.873,45.917z M137.746,206.623h-16.621c0.85-2.395,1.316-4.97,1.316-7.653v-22.958
				c0-4.22,3.433-7.653,7.652-7.653c4.22,0,7.653,3.433,7.653,7.653V206.623z M130.094,153.055L130.094,153.055
				c-12.659-0.001-22.958,10.298-22.958,22.957v22.958c0,4.22-3.433,7.653-7.653,7.653c-4.22,0-7.652-3.433-7.652-7.653V45.917
				h283.15v107.138H130.094z M416.307,453.042l-26.02,19.514l-26.019-19.514c-2.72-2.041-6.463-2.041-9.183,0l-26.02,19.514
				l-26.02-19.514c-2.722-2.041-6.463-2.041-9.183,0l-26.021,19.514l-26.016-19.514c-2.721-2.041-6.462-2.041-9.184,0
				l-26.021,19.514l-26.018-19.514c-1.361-1.02-2.976-1.531-4.592-1.531c-1.615,0-3.231,0.51-4.591,1.531l-18.367,13.775V176.013
				c0-2.682-0.462-5.258-1.312-7.653h284.462c4.22,0,7.653,3.433,7.653,7.653v290.802l-18.365-13.773
				C422.771,451.002,419.027,451,416.307,453.042z"/>
			<path d="M344.371,68.875H122.443c-4.227,0-7.653,3.426-7.653,7.653c0,4.226,3.426,7.653,7.653,7.653h221.929
				c4.227,0,7.653-3.426,7.653-7.653S348.599,68.875,344.371,68.875z"/>
			<path d="M168.358,114.791h-45.916c-4.227,0-7.653,3.426-7.653,7.653c0,4.227,3.426,7.653,7.653,7.653h45.916
				c4.227,0,7.653-3.426,7.653-7.653C176.011,118.217,172.584,114.791,168.358,114.791z"/>
			<path d="M344.371,114.791H198.969c-4.227,0-7.653,3.426-7.653,7.653c0,4.227,3.426,7.653,7.653,7.653h145.402
				c4.227,0,7.653-3.426,7.653-7.653C352.024,118.217,348.599,114.791,344.371,114.791z"/>
			<path d="M413.245,191.318H183.664c-4.227,0-7.653,3.426-7.653,7.653c0,4.227,3.426,7.653,7.653,7.653h229.582
				c4.227,0,7.653-3.426,7.653-7.653C420.899,194.744,417.472,191.318,413.245,191.318z"/>
			<path d="M413.245,237.234H283.147c-4.227,0-7.653,3.426-7.653,7.653c0,4.227,3.426,7.653,7.653,7.653h130.098
				c4.227,0,7.653-3.426,7.653-7.653C420.898,240.66,417.472,237.234,413.245,237.234z"/>
			<path d="M183.664,252.54h68.872c4.227,0,7.653-3.426,7.653-7.653c0-4.227-3.426-7.653-7.653-7.653h-68.872
				c-4.227,0-7.653,3.426-7.653,7.653C176.011,249.114,179.438,252.54,183.664,252.54z"/>
			<path d="M413.245,283.151h-38.264c-4.227,0-7.653,3.426-7.653,7.653c0,4.227,3.426,7.653,7.653,7.653h38.264
				c4.227,0,7.653-3.426,7.653-7.653C420.898,286.577,417.472,283.151,413.245,283.151z"/>
			<path d="M183.664,298.456h160.709c4.227,0,7.653-3.426,7.653-7.653c0-4.227-3.426-7.653-7.653-7.653H183.664
				c-4.227,0-7.653,3.426-7.653,7.653C176.011,295.03,179.438,298.456,183.664,298.456z"/>
			<path d="M413.245,329.067H313.76c-4.227,0-7.653,3.426-7.653,7.653s3.426,7.653,7.653,7.653h99.486
				c4.227,0,7.653-3.426,7.653-7.653C420.898,332.493,417.472,329.067,413.245,329.067z"/>
			<path d="M183.664,344.372h99.485c4.227,0,7.653-3.426,7.653-7.653c0-4.227-3.426-7.653-7.653-7.653h-99.485
				c-4.227,0-7.653,3.426-7.653,7.653C176.011,340.946,179.438,344.372,183.664,344.372z"/>
			<path d="M413.245,374.983H183.664c-4.227,0-7.653,3.426-7.653,7.653s3.426,7.653,7.653,7.653h229.582
				c4.227,0,7.653-3.426,7.653-7.653C420.899,378.409,417.472,374.983,413.245,374.983z"/>
			<path d="M214.274,420.9h-30.611c-4.227,0-7.653,3.426-7.653,7.653s3.426,7.653,7.653,7.653h30.611
				c4.227,0,7.653-3.426,7.653-7.653S218.501,420.9,214.274,420.9z"/>
			<path d="M413.245,420.9h-168.36c-4.226,0-7.653,3.426-7.653,7.653s3.426,7.653,7.653,7.653h168.36
				c4.227,0,7.653-3.426,7.653-7.653S417.472,420.9,413.245,420.9z"/>
		</g>
	</g>
</g>
</svg>